<svg width="76" height="82" viewBox="0 0 76 82" fill="none" xmlns="http://www.w3.org/2000/svg">
<g clip-path="url(#clip0_1_454)">
<path fill-rule="evenodd" clip-rule="evenodd" d="M61.0922 73.1091L67.0303 0.946543L67.1079 0H66.2331H1.05458H0.179688L0.257391 0.946543L6.18905 73.1208L6.23849 73.7228L6.77283 73.8833L33.3907 81.9H33.8178L60.5083 73.8716L61.0425 73.7111L61.0922 73.1091Z" fill="#1572B6"/>
<path fill-rule="evenodd" clip-rule="evenodd" d="M61.9496 5.11877H33.6437V76.6405L56.6333 69.7254L61.9496 5.11877Z" fill="#35A8DB"/>
<path fill-rule="evenodd" clip-rule="evenodd" d="M33.6121 24.3332L13.6475 33.3538L14.3097 42.2846L33.6121 33.3309L54.1448 23.8072L54.996 14.6713L33.6121 24.3332Z" fill="#E9E9E8"/>
<path fill-rule="evenodd" clip-rule="evenodd" d="M33.6121 14.6715H33.76H33.9286H34.0967H34.2652H34.4338H34.6024H34.771H34.9396H35.1081H35.2767H35.4453H35.6139H35.7825H35.951H36.1196H36.2882H36.4563H36.6249H36.7934H36.962H37.1306H37.2992H37.4677H37.6363H37.8049H37.9735H38.1421H38.3101H38.4787H38.6473H38.8159H38.9845H39.153H39.3216H39.4902H39.6588H39.8274H39.9959H40.1645H40.3331H40.5017H40.6702H40.8383H41.0069H41.1755H41.3441H41.5126H41.6812H41.8498H42.0184H42.187H42.3555H42.5241H42.6927H42.8613H43.0294H43.1979H43.3665H43.5351H43.7037H43.8723H44.0408H44.2094H44.378H44.5466H44.7151H44.8837H45.0518H45.2204H45.389H45.5576H45.7261H45.8947H46.0633H46.2319H46.4004H46.569H46.7376H46.9062H47.0748H47.2433H47.4114H47.58H47.7486H47.9172H48.0857H48.2543H48.4229H48.5915H48.76H48.9286H49.0972H49.2658H49.4339H49.6024H49.771H49.9396H50.1082H50.2768H50.4453H50.6139H50.7825H50.9511H51.1197H51.2882H51.4568H51.6254H51.7935H51.9621H52.1306H52.2992H52.4678H52.6364H52.805H52.9735H53.1421H53.3107H53.4793H53.6478H53.8164H53.985H54.1531H54.3217H54.4902H54.6588H54.8274H54.996L54.8274 16.4798L54.6588 18.288L54.4902 20.0961L54.3217 21.9048L54.1531 23.713L54.1447 23.807H53.985H53.8164H53.6478H53.4793H53.3107H53.1421H52.9735H52.805H52.6364H52.4678H52.2992H52.1306H51.9621H51.7935H51.6254H51.4568H51.2882H51.1197H50.9511H50.7825H50.6139H50.4453H50.2768H50.1082H49.9396H49.771H49.6024H49.4339H49.2658H49.0972H48.9286H48.76H48.5915H48.4229H48.2543H48.0857H47.9172H47.7486H47.58H47.4114H47.2433H47.0748H46.9062H46.7376H46.569H46.4004H46.2319H46.0633H45.8947H45.7261H45.5576H45.389H45.2204H45.0518H44.8837H44.7151H44.5466H44.378H44.2094H44.0408H43.8723H43.7037H43.5351H43.3665H43.1979H43.0294H42.8613H42.6927H42.5241H42.3555H42.187H42.0184H41.8498H41.6812H41.5126H41.3441H41.1755H41.0069H40.8383H40.6702H40.5017H40.3331H40.1645H39.9959H39.8274H39.6588H39.4902H39.3216H39.153H38.9845H38.8159H38.6473H38.4787H38.3101H38.1421H37.9735H37.8049H37.6363H37.4677H37.2992H37.1306H36.962H36.7934H36.6249H36.4563H36.2882H36.1196H35.951H35.7825H35.6139H35.4453H35.2767H35.1081H34.9396H34.7759H34.771H34.6024H34.4338H34.2652H34.0967H33.9286H33.76H33.6366H33.6121H33.5914H33.4228H33.2543H33.0857H32.9171H32.7485H32.58H32.4115H32.243H32.0745H31.9059H31.7374H31.5688H31.4003H31.2318H31.0632H30.8947H30.7261H30.5576H30.3891H30.2205H30.052H29.8834H29.7149H29.5464H29.3778H29.2093H29.0407H28.8722H28.7036H28.5351H28.3666H28.198H28.0295H27.8609H27.6924H27.5239H27.3553H27.1868H27.0182H26.8497H26.6812H26.5126H26.3441H26.1755H26.007H25.8385H25.6699H25.5014H25.3328H25.1643H24.9958H24.8272H24.6587H24.4901H24.3216H24.153H23.9845H23.816H23.6474H23.4789H23.3103H23.1418H22.9733H22.8047H22.6362H22.4676H22.2991H22.1305H21.962H21.7935H21.6249H21.4564H21.2878H21.1193H20.9508H20.7822H20.6137H20.4451H20.2766H20.108H19.9395H19.771H19.6024H19.4339H19.2654H19.0968H18.9283H18.7597H18.5912H18.4226H18.2541H18.0856H17.917H17.7485H17.5799H17.4114H17.2428H17.0743H16.9058H16.7372H16.5687H16.4001H16.2316H16.0631H15.8945H15.726H15.5575H15.3889H15.2203H15.0518H14.8833H14.7147H14.5462H14.3777H14.2091H14.0405H13.872H13.7035H13.535H13.3664H13.1979H13.0293H12.8902L12.8608 23.5486L12.6923 22.0689L12.5237 20.5895L12.3551 19.1096L12.1866 17.6303L12.0181 16.1509L11.8496 14.6715H12.0181H12.1866H12.3551H12.5237H12.6923H12.8608H13.0293H13.1979H13.3664H13.535H13.7035H13.872H14.0405H14.2091H14.3777H14.5462H14.7147H14.8833H15.0518H15.2203H15.3889H15.5575H15.726H15.8945H16.0631H16.2316H16.4001H16.5687H16.7372H16.9058H17.0743H17.2428H17.4114H17.5799H17.7485H17.917H18.0856H18.2541H18.4226H18.5912H18.7597H18.9283H19.0968H19.2654H19.4339H19.6024H19.771H19.9395H20.108H20.2766H20.4451H20.6137H20.7822H20.9508H21.1193H21.2878H21.4564H21.6249H21.7935H21.962H22.1305H22.2991H22.4676H22.6362H22.8047H22.9733H23.1418H23.3103H23.4789H23.6474H23.816H23.9845H24.153H24.3216H24.4901H24.6587H24.8272H24.9958H25.1643H25.3328H25.5014H25.6699H25.8385H26.007H26.1755H26.3441H26.5126H26.6812H26.8497H27.0182H27.1868H27.3553H27.5239H27.6924H27.8609H28.0295H28.198H28.3666H28.5351H28.7036H28.8722H29.0407H29.2093H29.3778H29.5464H29.7149H29.8834H30.052H30.2205H30.3891H30.5576H30.7261H30.8947H31.0632H31.2318H31.4003H31.5688H31.7374H31.9059H32.0745H32.243H32.4115H32.58H32.7485H32.9171H33.0857H33.2543H33.4228H33.5914H33.6121Z" fill="#E9E9E8"/>
<path fill-rule="evenodd" clip-rule="evenodd" d="M13.6782 33.3551H53.4194L52.6955 42.3875L14.3404 42.2846L13.6782 33.3551Z" fill="#E9E9E8"/>
<path fill-rule="evenodd" clip-rule="evenodd" d="M14.9199 47.316L23.6133 47.3197L24.1805 54.7051L33.6119 57.2426L43.2946 54.2945L43.9498 42.2169L52.7207 42.0676L51.148 61.6853L33.6434 67.229L16.0127 61.5829L14.9199 47.316Z" fill="#E9E9E8"/>
<path fill-rule="evenodd" clip-rule="evenodd" d="M33.6439 33.3163L54.1451 23.8072L54.9964 14.6713L33.6439 24.3189V33.3163Z" fill="#FFFFFE"/>
<path fill-rule="evenodd" clip-rule="evenodd" d="M33.6439 14.6715H33.7604H33.929H34.0971H34.2656H34.4342H34.6028H34.7714H34.94H35.1085H35.2771H35.4457H35.6143H35.7829H35.9514H36.12H36.2886H36.4567H36.6253H36.7938H36.9624H37.131H37.2996H37.4682H37.6367H37.8053H37.9739H38.1425H38.3105H38.4791H38.6477H38.8163H38.9849H39.1534H39.322H39.4906H39.6592H39.8278H39.9963H40.1649H40.3335H40.5021H40.6706H40.8387H41.0073H41.1759H41.3445H41.513H41.6816H41.8502H42.0188H42.1874H42.3559H42.5245H42.6931H42.8617H43.0298H43.1983H43.3669H43.5355H43.7041H43.8727H44.0412H44.2098H44.3784H44.547H44.7156H44.8841H45.0522H45.2208H45.3894H45.558H45.7265H45.8951H46.0637H46.2323H46.4008H46.5694H46.738H46.9066H47.0752H47.2437H47.4118H47.5804H47.749H47.9176H48.0861H48.2547H48.4233H48.5919H48.7605H48.929H49.0976H49.2662H49.4343H49.6029H49.7714H49.94H50.1086H50.2772H50.4457H50.6143H50.7829H50.9515H51.1201H51.2886H51.4572H51.6258H51.7939H51.9625H52.131H52.2996H52.4682H52.6368H52.8054H52.9739H53.1425H53.3111H53.4797H53.6483H53.8168H53.9854H54.1535H54.3221H54.4907H54.6592H54.8278H54.9964L54.8278 16.4798L54.6592 18.288L54.4907 20.0961L54.3221 21.9048L54.1535 23.713L54.1451 23.807H53.9854H53.8168H53.6483H53.4797H53.3111H53.1425H52.9739H52.8054H52.6368H52.4682H52.2996H52.131H51.9625H51.7939H51.6258H51.4572H51.2886H51.1201H50.9515H50.7829H50.6143H50.4457H50.2772H50.1086H49.94H49.7714H49.6029H49.4343H49.2662H49.0976H48.929H48.7605H48.5919H48.4233H48.2547H48.0861H47.9176H47.749H47.5804H47.4118H47.2437H47.0752H46.9066H46.738H46.5694H46.4008H46.2323H46.0637H45.8951H45.7265H45.558H45.3894H45.2208H45.0522H44.8841H44.7156H44.547H44.3784H44.2098H44.0412H43.8727H43.7041H43.5355H43.3669H43.1983H43.0298H42.8617H42.6931H42.5245H42.3559H42.1874H42.0188H41.8502H41.6816H41.513H41.3445H41.1759H41.0073H40.8387H40.6706H40.5021H40.3335H40.1649H39.9963H39.8278H39.6592H39.4906H39.322H39.1534H38.9849H38.8163H38.6477H38.4791H38.3105H38.1425H37.9739H37.8053H37.6367H37.4682H37.2996H37.131H36.9624H36.7938H36.6253H36.4567H36.2886H36.12H35.9514H35.7829H35.6143H35.4457H35.2771H35.1085H34.94H34.7763H34.7714H34.6028H34.4342H34.2656H34.0971H33.929H33.7604H33.6439V14.6715Z" fill="#FFFFFE"/>
<path fill-rule="evenodd" clip-rule="evenodd" d="M33.6436 33.3551H53.4193L52.6954 42.3875L33.6436 42.3363V33.3551Z" fill="#FFFFFE"/>
<path fill-rule="evenodd" clip-rule="evenodd" d="M33.6436 57.233L43.2948 54.2945L43.9499 42.2169L52.7209 42.0676L51.1482 61.6853L33.6436 67.229V67.2284V57.233Z" fill="#FFFFFE"/>
</g>
<defs>
<clipPath id="clip0_1_454">
<rect width="75.4917" height="81.9" fill="white" transform="translate(0.179688)"/>
</clipPath>
</defs>
</svg>
