<svg width="76" height="82" viewBox="0 0 76 82" fill="none" xmlns="http://www.w3.org/2000/svg">
<g clip-path="url(#clip0_1_441)">
<path d="M5.12238 20.1636C-1.49449 30.4804 -0.670131 43.9033 4.38368 54.8663C4.504 55.1293 4.62992 55.3877 4.75421 55.647C4.83339 55.8101 4.90814 55.9784 4.99057 56.1396C5.03686 56.2367 5.08921 56.3314 5.13772 56.4242C5.22412 56.5994 5.312 56.7651 5.40164 56.9359C5.55867 57.236 5.71983 57.5343 5.88408 57.8327C5.9752 57.9966 6.06514 58.1606 6.15906 58.3244C6.34131 58.6437 6.52797 58.9604 6.71921 59.275C6.79883 59.4096 6.87624 59.5441 6.95792 59.674C7.2214 60.1007 7.49079 60.5267 7.76857 60.9447C7.7758 60.9551 7.78376 60.9665 7.79187 60.9769C7.83581 61.0445 7.88461 61.1104 7.92899 61.1773C8.16918 61.5372 8.41748 61.892 8.66769 62.2441C8.75999 62.3717 8.85362 62.5 8.94636 62.6283C9.16989 62.9337 9.39769 63.2365 9.62918 63.5389C9.71587 63.6517 9.80272 63.7653 9.8903 63.8763C10.2008 64.2729 10.5178 64.6683 10.8422 65.056C10.8478 65.0631 10.8553 65.0709 10.8614 65.0778C10.8745 65.0942 10.8861 65.1046 10.8978 65.1203C11.2141 65.4951 11.5374 65.8621 11.8653 66.2281C11.9668 66.3407 12.0709 66.4544 12.1751 66.5672C12.429 66.8437 12.6869 67.1154 12.9474 67.3886C13.0533 67.497 13.1581 67.6088 13.2632 67.7138C13.6114 68.0695 13.9629 68.4181 14.3215 68.7582C14.3278 68.765 14.3322 68.7703 14.3383 68.7729C14.399 68.8319 14.4621 68.8884 14.5221 68.9429C14.8384 69.2403 15.1598 69.5353 15.4836 69.8251C15.6156 69.9404 15.749 70.055 15.8819 70.1693C16.1465 70.3994 16.4138 70.6257 16.6834 70.8485C16.8257 70.9664 16.9684 71.0845 17.1118 71.2025C17.4089 71.4385 17.7083 71.6733 18.011 71.9015C18.1214 71.9882 18.228 72.0714 18.3389 72.154C18.3693 72.1773 18.3973 72.2016 18.4284 72.224C18.7155 72.4374 19.0084 72.6449 19.3014 72.8504C19.4273 72.9413 19.5525 73.035 19.6796 73.1235C20.1293 73.4316 20.5855 73.7368 21.0467 74.0327C21.1723 74.1098 21.2985 74.1863 21.4245 74.2634C21.7634 74.4758 22.1045 74.6841 22.4507 74.8879C22.6373 74.9971 22.8296 75.1003 23.0179 75.2044C23.2625 75.3441 23.5048 75.4845 23.7526 75.6181C23.8089 75.6493 23.8673 75.6789 23.9229 75.7075C24.022 75.7595 24.1227 75.8108 24.2231 75.8654C24.6076 76.0649 24.9954 76.26 25.3864 76.4499C25.47 76.4897 25.5504 76.5297 25.6331 76.5687C26.0814 76.7812 26.5334 76.9867 26.9908 77.182C27.1003 77.2297 27.2111 77.2756 27.3215 77.3234C27.7441 77.4995 28.1723 77.6737 28.6019 77.8379C28.6566 77.8587 28.7091 77.8777 28.7629 77.8975C29.235 78.0772 29.7116 78.2427 30.1917 78.4051C30.3059 78.4416 30.4211 78.4815 30.5362 78.5179C31.0247 78.6773 31.5069 78.8674 32.0114 78.9688C64.01 85.2991 73.3049 58.107 73.3049 58.107C65.4989 69.1405 51.6418 72.0514 38.5129 68.8106C38.0151 68.6892 37.5329 68.5209 37.0476 68.3648C36.9241 68.325 36.8034 68.2852 36.6819 68.2444C36.2081 68.0865 35.7384 67.9209 35.2711 67.7466C35.2071 67.7223 35.1424 67.6963 35.0772 67.6709C34.6588 67.5114 34.2454 67.3431 33.8331 67.1704C33.7168 67.1202 33.6004 67.0725 33.4845 67.0221C33.0329 66.8287 32.584 66.6265 32.1413 66.4158C32.0498 66.3741 31.9626 66.33 31.8731 66.2864C31.4923 66.0999 31.1156 65.9118 30.7394 65.7157C30.6315 65.6586 30.5227 65.6031 30.4124 65.545C30.1181 65.3897 29.8263 65.224 29.5361 65.0618C29.3415 64.9508 29.1436 64.845 28.9514 64.7295C28.5963 64.5232 28.2478 64.3088 27.9011 64.0903C27.7832 64.0184 27.6645 63.9497 27.5461 63.876C27.0847 63.5812 26.629 63.2758 26.1781 62.9661C26.0538 62.8804 25.9318 62.7884 25.8092 62.7C25.4821 62.4709 25.1563 62.2385 24.836 61.9972C24.7297 61.9209 24.6267 61.836 24.5223 61.7587C24.2123 61.522 23.9062 61.2809 23.6019 61.0372C23.4644 60.9269 23.3281 60.8124 23.1942 60.7022C22.9156 60.4707 22.6382 60.2383 22.364 59.9979C22.2404 59.8912 22.1161 59.7837 21.9937 59.676C21.6447 59.3648 21.3002 59.0525 20.9596 58.7315C20.924 58.6968 20.8853 58.6638 20.8465 58.6283C20.4786 58.277 20.1165 57.917 19.7595 57.5553C19.6556 57.4478 19.5549 57.3437 19.4533 57.2352C19.1883 56.963 18.9281 56.687 18.6723 56.4052C18.5699 56.2942 18.4667 56.1839 18.366 56.0739C18.0403 55.7113 17.7208 55.3453 17.4075 54.9732C17.3918 54.955 17.3755 54.9385 17.3603 54.9185C17.0288 54.5255 16.705 54.124 16.388 53.718C16.3021 53.607 16.2186 53.4995 16.1334 53.3901C15.8972 53.0812 15.6629 52.768 15.4342 52.4516C15.3478 52.3388 15.262 52.2215 15.1771 52.1054C14.9021 51.7177 14.6327 51.3318 14.3688 50.9379C7.07927 40.1528 4.4605 25.2752 10.2862 13.057" fill="#010101"/>
<path d="M25.6616 11.4713C20.8764 18.9423 21.1364 28.9415 24.8689 36.8427C25.495 38.1672 26.1986 39.4519 26.9857 40.6757C27.7024 41.7903 28.4968 43.1166 29.4481 44.0116C29.7936 44.4236 30.1538 44.8261 30.522 45.2209C30.6152 45.325 30.7103 45.4231 30.8054 45.5253C31.1623 45.9001 31.5261 46.2704 31.9019 46.6295C31.9174 46.6434 31.9311 46.6597 31.9467 46.6711C31.9507 46.6762 31.9547 46.6781 31.957 46.6832C32.3728 47.078 32.8021 47.4587 33.2382 47.8325C33.3349 47.9124 33.4309 47.9965 33.5288 48.0789C33.9657 48.4423 34.4116 48.8006 34.8688 49.1407C34.8823 49.1509 34.894 49.1615 34.9076 49.1737C35.1091 49.3237 35.3149 49.465 35.5189 49.61C35.6172 49.6795 35.7104 49.7532 35.8092 49.8181C36.1353 50.0446 36.4661 50.2659 36.8022 50.4783C36.8497 50.5105 36.8966 50.5364 36.9426 50.566C37.2323 50.7472 37.5262 50.9259 37.8209 51.0985C37.9237 51.1618 38.0284 51.2164 38.1332 51.2754C38.3367 51.3909 38.5402 51.5078 38.7476 51.6206C38.7775 51.6363 38.81 51.6518 38.8399 51.6657C39.2616 51.8911 39.6874 52.1081 40.1215 52.3127C40.2139 52.3569 40.3098 52.3967 40.4046 52.4393C40.7512 52.5989 41.1022 52.7552 41.454 52.9017C41.6035 52.9633 41.7546 53.0214 41.9041 53.0813C42.2235 53.2098 42.545 53.3275 42.8684 53.4456C43.0147 53.4958 43.1581 53.548 43.3045 53.5964C43.7646 53.7508 44.2191 53.9467 44.6988 54.0334C69.4046 58.4746 75.1088 37.8374 75.1088 37.8374C69.9666 45.8694 60.0097 49.7042 49.3844 46.7117C48.9127 46.5773 48.4477 46.4306 47.9858 46.2728C47.8442 46.2261 47.7052 46.1757 47.5651 46.1253C47.2364 46.01 46.9098 45.8869 46.5861 45.7594C46.4377 45.7012 46.2897 45.6424 46.1443 45.5816C45.7893 45.4333 45.4386 45.2805 45.0908 45.1201C44.996 45.0759 44.8997 45.0367 44.807 44.99C44.3709 44.7845 43.9415 44.5668 43.5177 44.3412C43.2998 44.2248 43.086 44.1027 42.8718 43.9839C42.7478 43.9137 42.623 43.8442 42.4987 43.7748C42.2233 43.6125 41.9503 43.4451 41.6804 43.2743C41.6169 43.2345 41.5501 43.1972 41.4854 43.1545C41.1505 42.9421 40.821 42.7236 40.4947 42.4988C40.394 42.4286 40.2973 42.3531 40.1965 42.2819C39.9811 42.1303 39.766 41.9767 39.5549 41.8214C39.0996 41.4815 38.6562 41.1241 38.2196 40.7615C38.1189 40.6756 38.0178 40.5914 37.919 40.5055C33.2677 36.5215 29.582 31.077 27.8293 24.9045C25.9925 18.5015 26.3879 11.3159 29.5704 5.48352" fill="#010101"/>
<path d="M42.9359 4.97728C40.1151 9.48082 39.8381 15.0739 41.7954 20.0483C43.8593 25.3282 48.0889 29.47 53.026 31.4329C53.2294 31.5153 53.4325 31.589 53.6392 31.6645C53.729 31.6949 53.8182 31.7279 53.9093 31.7565C54.2001 31.8562 54.4891 31.9717 54.7897 32.0331C68.4313 34.8929 72.1314 24.4381 73.1165 22.8993C69.8748 27.9622 64.4283 29.1776 57.7448 27.4185C57.2166 27.2779 56.6362 27.0716 56.1276 26.8755C55.4752 26.6238 54.8325 26.3359 54.2073 26.0107C53.0208 25.3921 51.8898 24.6411 50.8404 23.7823C44.8603 18.859 41.1446 9.4677 45.0471 1.81885" fill="#010101"/>
</g>
<defs>
<clipPath id="clip0_1_441">
<rect width="75.4917" height="81.9" fill="white" transform="translate(0.0623779)"/>
</clipPath>
</defs>
</svg>
