<svg width="71" height="71" viewBox="0 0 71 71" fill="none" xmlns="http://www.w3.org/2000/svg">
<g clip-path="url(#clip0_1_434)">
<path d="M70.9638 59.1668C70.9638 65.6751 65.6586 71.0001 59.1744 71.0001H12.0169C5.53276 71.0001 0.227539 65.6751 0.227539 59.1668V11.8335C0.227539 5.32512 5.53276 0.00012207 12.0169 0.00012207H59.1744C65.6586 0.00012207 70.9638 5.32512 70.9638 11.8335V59.1668Z" fill="#563D7C"/>
<path d="M19.449 15.4298H39.5025C43.2011 15.4298 46.1716 16.2767 48.4023 17.9821C50.633 19.6875 51.7542 22.2514 51.7542 25.697C51.7542 27.7852 51.2456 29.5718 50.2285 31.0568C49.2114 32.5417 47.755 33.7019 45.8595 34.514V34.63C48.4023 35.1752 50.3325 36.3818 51.6386 38.2496C52.9447 40.129 53.6035 42.4725 53.6035 45.3032C53.6035 46.9274 53.3145 48.4471 52.7366 49.8509C52.1587 51.2662 51.2572 52.4844 50.0204 53.5053C48.7837 54.5262 47.2118 55.3383 45.2816 55.9416C43.3514 56.5448 41.0628 56.8465 38.4044 56.8465H19.449V15.4298ZM26.6729 32.7738H38.4622C40.196 32.7738 41.6407 32.2865 42.7966 31.2888C43.9524 30.2911 44.5303 28.8757 44.5303 27.0195C44.5303 24.9313 44.0102 23.4579 42.9699 22.611C41.9297 21.7641 40.4271 21.3349 38.4622 21.3349H26.6729V32.7738ZM26.6729 50.9298H39.4447C41.6407 50.9298 43.3514 50.3613 44.5534 49.2128C45.767 48.0759 46.3796 46.4517 46.3796 44.3635C46.3796 42.31 45.7786 40.7439 44.5534 39.6301C43.3282 38.5164 41.6407 37.9827 39.4447 37.9827H26.6729V50.9298Z" fill="white"/>
</g>
<defs>
<clipPath id="clip0_1_434">
<rect width="70.7363" height="71" fill="white" transform="translate(0.227539)"/>
</clipPath>
</defs>
</svg>
