<svg width="105" height="55" viewBox="0 0 105 55" fill="none" xmlns="http://www.w3.org/2000/svg">
<g clip-path="url(#clip0_1_421)">
<path d="M52.5369 54.8372C81.4242 54.8372 104.842 42.5615 104.842 27.4186C104.842 12.2758 81.4242 0.00012207 52.5369 0.00012207C23.6497 0.00012207 0.231934 12.2758 0.231934 27.4186C0.231934 42.5615 23.6497 54.8372 52.5369 54.8372Z" fill="url(#paint0_radial_1_421)"/>
<path d="M52.537 52.8001C80.2958 52.8001 102.799 41.4364 102.799 27.4186C102.799 13.4008 80.2958 2.03711 52.537 2.03711C24.7781 2.03711 2.27515 13.4008 2.27515 27.4186C2.27515 41.4364 24.7781 52.8001 52.537 52.8001Z" fill="#6181B6"/>
<path d="M62.7119 35.6483L65.2046 22.8557C65.7767 19.9631 65.2863 17.8039 63.8152 16.4594C62.385 15.1557 59.9332 14.5039 56.3373 14.5039H52.0057L53.2316 8.14831C53.2725 7.90387 53.2317 7.65942 53.0682 7.45572C52.9047 7.25201 52.7004 7.17053 52.4552 7.17053H46.4892C46.0806 7.17053 45.7537 7.45572 45.6719 7.82238L43.0158 21.3891C42.7707 19.8409 42.1986 18.5372 41.2179 17.4779C39.4607 15.4816 36.7229 14.4631 33.0043 14.4631H21.5218C21.1131 14.4631 20.7862 14.7483 20.7045 15.115L15.3514 42.6557C15.3105 42.9002 15.3514 43.1446 15.5149 43.3483C15.6783 43.552 15.8826 43.6335 16.1278 43.6335H22.1347C22.5433 43.6335 22.8702 43.3483 22.952 42.9816L24.2596 36.3409H28.7137C31.0429 36.3409 33.0452 36.0965 34.5571 35.6076C36.1508 35.0779 37.581 34.2224 38.8478 33.0409C39.8694 32.1039 40.7275 31.0446 41.3813 29.9039L40.3189 35.4039C40.278 35.6483 40.3189 35.8928 40.4823 36.0965C40.6458 36.3002 40.8501 36.3816 41.0953 36.3816H47.0613C47.4699 36.3816 47.7968 36.0965 47.8786 35.7298L50.8207 20.6557H54.907C56.6642 20.6557 57.1545 20.9816 57.318 21.1446C57.4406 21.2668 57.6857 21.7557 57.3997 23.2631L55.0296 35.4446C54.9888 35.6891 55.0296 35.9335 55.1931 36.1372C55.3565 36.3409 55.5609 36.4224 55.806 36.4224H61.9355C62.3033 36.3002 62.6302 36.015 62.7119 35.6483ZM35.0884 25.0557C34.7206 26.9705 34.0259 28.3557 33.0043 29.1298C31.9828 29.9039 30.3074 30.3113 28.1007 30.3113H25.4446L27.3652 20.452H30.7977C33.3312 20.452 34.3528 20.9816 34.7615 21.4298C35.2927 22.0816 35.4153 23.3446 35.0884 25.0557Z" fill="white"/>
<path d="M88.2106 17.4779C86.4535 15.4817 83.7156 14.4631 79.9971 14.4631H68.4328C68.0241 14.4631 67.6972 14.7483 67.6155 15.115L62.2624 42.615C62.2216 42.8594 62.2624 43.1039 62.4259 43.3076C62.5893 43.5113 62.7936 43.5928 63.0388 43.5928H69.0457C69.4544 43.5928 69.7813 43.3076 69.863 42.9409L71.1706 36.3002H75.6247C77.9539 36.3002 79.9562 36.0557 81.4682 35.5668C83.0618 35.0372 84.492 34.1817 85.7588 33.0002C86.8212 32.0224 87.7202 30.9224 88.3741 29.7409C89.0279 28.5594 89.5182 27.2557 89.8043 25.8298C90.4989 22.2854 89.9677 19.515 88.2106 17.4779ZM81.9585 25.0557C81.5907 26.9705 80.8961 28.3557 79.8745 29.1298C78.8529 29.9039 77.1775 30.3113 74.9709 30.3113H72.3148L74.2354 20.452H77.6679C80.2014 20.452 81.223 20.9817 81.6316 21.4298C82.2037 22.0817 82.3263 23.3446 81.9585 25.0557Z" fill="white"/>
<path d="M30.7978 19.6372C33.0861 19.6372 34.598 20.0446 35.3744 20.9002C36.1508 21.7557 36.3143 23.1817 35.9057 25.2187C35.497 27.3372 34.6798 28.8854 33.4947 29.7817C32.3097 30.678 30.5117 31.1261 28.1008 31.1261H24.4639L26.7114 19.6372H30.7978ZM16.1687 42.778H22.1756L23.6058 35.4854H28.7546C31.0429 35.4854 32.8818 35.2409 34.3529 34.752C35.8239 34.2631 37.1316 33.4891 38.3575 32.3483C39.379 31.4113 40.1963 30.3928 40.8093 29.2928C41.4222 28.1928 41.8717 26.9705 42.1169 25.6261C42.7707 22.3668 42.2803 19.8409 40.6867 18.0076C39.093 16.1743 36.5595 15.278 33.0861 15.278H21.5218L16.1687 42.778Z" fill="#010101"/>
<path d="M46.5301 7.98535H52.4961L51.0659 15.2779H56.3781C59.7289 15.2779 62.0173 15.8483 63.284 17.0298C64.5508 18.2113 64.9186 20.0854 64.4282 22.6928L61.9355 35.4854H55.8878L58.2579 23.3039C58.5439 21.9187 58.4213 20.9816 57.9718 20.4928C57.5223 20.0039 56.5007 19.7187 54.9888 19.7187H50.2078L47.143 35.4854H41.177L46.5301 7.98535Z" fill="#010101"/>
<path d="M77.6679 19.6372C79.9562 19.6372 81.4682 20.0446 82.2446 20.9002C83.021 21.7557 83.1844 23.1817 82.7758 25.2187C82.3671 27.3372 81.5499 28.8854 80.3648 29.7817C79.1798 30.678 77.3818 31.1261 74.9709 31.1261H71.3341L73.5815 19.6372H77.6679ZM63.0388 42.778H69.0457L70.4759 35.4854H75.6247C77.9131 35.4854 79.7519 35.2409 81.223 34.752C82.6941 34.2631 84.0017 33.4891 85.2276 32.3483C86.2492 31.4113 87.0664 30.3928 87.6794 29.2928C88.2923 28.1928 88.7418 26.9705 88.987 25.6261C89.6408 22.3668 89.1504 19.8409 87.5568 18.0076C85.9631 16.1743 83.4296 15.278 79.9562 15.278H68.3919L63.0388 42.778Z" fill="#010101"/>
</g>
<defs>
<radialGradient id="paint0_radial_1_421" cx="0" cy="0" r="1" gradientUnits="userSpaceOnUse" gradientTransform="translate(31.6361 9.64252) scale(68.6892 68.4832)">
<stop stop-color="white"/>
<stop offset="0.5" stop-color="#4C6B97"/>
<stop offset="1" stop-color="#231F20"/>
</radialGradient>
<clipPath id="clip0_1_421">
<rect width="104.61" height="55" fill="white" transform="translate(0.231934)"/>
</clipPath>
</defs>
</svg>
